<svg version="1.1" viewBox="0 0 1500 150.19" xmlns="http://www.w3.org/2000/svg">
 <style/>
 <path d="M.015 145.37c.011-3.435.284-4.335.985-3.25.716 1.108.973 1.155.985.179.011-.992.406-.93 1.585.248 1.426 1.426 1.374 1.844-.568 4.571-1.176 1.651-2.332 3.002-2.569 3.002s-.425-2.137-.417-4.75zm23.575 3.895c-.291-.47.558-1.875 1.886-3.122 1.789-1.681 3.086-2.099 5.01-1.616 1.428.358 2.35 1.05 2.049 1.537s.018 1.113.709 1.392c.974.393.962.524-.053.585-.72.043-1.031.529-.691 1.079.377.61-1.137 1-3.882 1-2.475 0-4.738-.385-5.028-.855zm84.979-.256c.468-.756 3.041-.613 3.869.215.273.273-.585.496-1.906.496s-2.204-.32-1.963-.711zm41.431-.149c0-.693-.9-1.821-2-2.508s-2-1.727-2-2.312c0-1.474 2.625-3.962 3.381-3.206.34.34.619-4.57.619-10.913 0-10.369.223-11.823 2.215-14.417 3.407-4.438 6.947-7.26 8.406-6.7.726.279 2.519-.436 3.985-1.589s2.358-2.096 1.984-2.096c-1.072 0 3.733-4.526 5.541-5.22 1.715-.658 3.869.86 3.869 2.727 0 1.021-1.891 3.552-7.749 10.374-1.237 1.44-2.249 3.112-2.25 3.716s-.901 2.135-2.001 3.403c-1.787 2.06-2.972 5.305-1.342 3.675.362-.362 1.348-.099 2.192.583 1.257 1.017 1.381.988.688-.163-.575-.953-.476-1.175.308-.691 1.782 1.102 1.414 2.23-1.994 6.112-2.543 2.897-2.9 3.817-1.853 4.785 1.029.952 1.123.89.457-.301-.707-1.264-.587-1.296.758-.206 1.646 1.333 1.789 2.812.477 4.913-1.145 1.831-3.93.321-3.369-1.827.77-2.946-2.974-.451-4.893 3.26-.876 1.694-1.137 2.799-.579 2.454 2.253-1.392 1.919 1.302-.528 4.255-2.744 3.312-4.321 4.002-4.321 1.892zm23.565.364c-.782-1.265 3.648-4.891 6.435-5.267 2.066-.279 2.45-.815 2.212-3.088-.226-2.16.131-2.75 1.667-2.75 2.606 0 3.23 2.076 1.292 4.298-1.734 1.988-2.526 5.04-1.076 4.143.506-.312 1.176.101 1.489.918.492 1.283.81 1.257 2.326-.187.965-.92 1.674-2.348 1.574-3.173-.234-1.938 1.678-5.018 2.716-4.376.699.432.899-.135.764-2.159-.02-.295.736-1.307 1.679-2.25 2.227-2.227 4.892-2.207 4.732.036-.25 3.495-.39 3.858-1.282 3.308-.499-.308-.708.228-.464 1.191.247.978-.673 2.942-2.084 4.448-1.39 1.483-2.128 2.943-1.641 3.244s1.173-.2 1.524-1.114c.472-1.231.929-1.37 1.762-.537s.8 1.517-.129 2.635c-1.357 1.635-3.127 1.666-4.296.074-.461-.628-.74-.555-.75.195-.018 1.381-17.609 1.772-18.45.41zm40.435.062c0-.458.655-.833 1.456-.833s1.224.375.941.833-.938.833-1.456.833-.941-.375-.941-.833zm29.386-2.184c.272-3.558 2.417-6.016 5.449-6.245 1.19-.09 2.165-.769 2.165-1.509s-.45-1.068-1-.728c-1.524.942-1.193-.164.581-1.938 1.932-1.932 4.041-1.016 2.35 1.021-.641.773-.951 2.533-.687 3.911s.146 2.506-.26 2.506-.63 1.279-.497 2.843c.23 2.698.023 2.851-4.045 3.005-4.187.158-4.281.092-4.056-2.866zm15.182 1.907c.468-.756 3.041-.613 3.869.215.273.273-.585.496-1.906.496s-2.204-.32-1.963-.711zm19.64.377c-.906-.323-.985-.83-.266-1.696.747-.9.555-1.24-.708-1.251-.954-.008-1.992.376-2.306.855-.657 1-4.928-2.395-4.928-3.918 0-.556.761-1.628 1.692-2.383 1.444-1.172 1.567-1.165.836.048-.647 1.074-.438 1.259.86.761.944-.362 1.464-.25 1.155.249-.88 1.424 2.272 3.99 4.398 3.581 1.478-.285 1.826.104 1.52 1.695-.484 2.514-.622 2.64-2.252 2.059zm11.491-1.377c-4.183-2.188-5.572-4.416-3.836-6.152.839-.839 1.451-.739 2.383.387 1.359 1.643 5.231 4.15 7.96 5.153 1.483.545 1.562.31.603-1.795-.845-1.855-.792-2.798.229-4.028 1.116-1.344 1.099-1.754-.103-2.514-1.109-.702-.924-.912.814-.924 2.535-.017 3.036-1.776.756-2.651-.822-.315-1.245-.976-.941-1.469.554-.896.16-1.037-3.557-1.27-1.096-.069-3.571-1.574-5.5-3.344-4.69-4.304-4.644-6.947.109-6.386.614.072 1.682-.549 2.372-1.382s2.127-1.513 3.192-1.513 1.7-.382 1.412-.849.569-1.435 1.907-2.151c3.561-1.906 2.372-2.606-4.182-2.461-4.568.101-6.178-.279-7.492-1.771-.921-1.045-2.046-1.983-2.5-2.084s-.713-.522-.576-.934-.312-.757-1-.765c-.881-.011-.833-.28.165-.911.778-.493 2.353-.672 3.5-.399 6.305 1.501 10.337 2.243 12.399 2.282 2.003.038 2.271-.381 2-3.113-.35-3.525-1.95-4.217-9.813-4.245-2.92-.01-5.181-.645-6.439-1.807-1.066-.985-2.699-1.792-3.628-1.792-2.488 0-4.207-2.564-3.407-5.084.542-1.707.882-1.88 1.567-.798.485.766.882.887.891.271.009-.644 1.066-.91 2.515-.633 1.375.263 2.5.902 2.5 1.42s.399.696.887.394 1.365.028 1.949.732c1.194 1.439 5.931 1.593 8.069.263 1.027-.639 1.209-.497.676.53-.401.772-.02.531.845-.537 1.145-1.412 1.578-1.548 1.589-.5.013 1.215.167 1.206.985-.059.533-.825.976-3.016.985-4.868.012-2.526.811-4.063 3.199-6.148 1.751-1.529 3.769-2.555 4.485-2.28s2.723-.697 4.46-2.158c2.293-1.93 3.459-2.357 4.256-1.56s.797 1.292-.002 1.806c-.605.39-.979 1.496-.83 2.458s-.167 1.75-.701 1.75-.692.45-.353 1 .072 1-.596 1c-.753 0-.527.759.596 2 1.578 1.743 1.45 2.31-.5 2.212-.275-.014-1.364 1.132-2.421 2.546s-1.485 2.302-.952 1.973c2.75-1.7 5.329 4.231 2.765 6.359-2.105 1.747-7.679 8.911-6.934 8.911.345 0 2.912-2.138 5.705-4.75s5.249-4.638 5.457-4.5c1.213.8 2.934-.15 6.009-3.316 4.133-4.256 7.018-5.116 7.895-2.353.464 1.463-1.329 4.198-7.204 10.986-8.475 9.793-9.9 12.013-6.122 9.538 2.007-1.315 2.739-1.37 4.181-.315 1.627 1.19 1.553 1.489-1.066 4.314-3.355 3.618-3.845 5.209-1.55 5.029 1.857-.146 2.408 2.437.768 3.602-1.971 1.401-3.776.839-3.085-.961.487-1.27-.003-1.101-1.854.638-1.987 1.866-2.307 2.757-1.52 4.227.693 1.295.659 1.862-.11 1.862-.609 0-.396.711.474 1.581s1.354 1.947 1.077 2.395.169 1.073.991 1.388c1.661.637 2.068 3.636.494 3.636-.55 0-1-.675-1-1.5a1.67 1.67 0 0 0-1.5-1.625c-1.654-.138-3.363-.514-3.75-.827-.137-.111-1.105-.362-2.15-.559-1.452-.273-1.176.304 1.167 2.444 4.551 4.157 7.765 4.417 11.717.947 3.339-2.931 6.517-3.789 6.517-1.758 0 .768.481.723 1.523-.141 1.273-1.057 1.42-.995.893.378-.346.903-.984 1.641-1.416 1.641s-1.079.762-1.436 1.694c-.575 1.5-.418 1.484 1.368-.132 1.11-1.004 2.293-2.693 2.629-3.752.895-2.821 4.965-2.034 4.86.94-.044 1.238.241 2.25.633 2.25 1.193 0 1.741-3.615.803-5.291-.538-.962-.485-1.821.138-2.205.561-.347 1.285.062 1.61.908.499 1.3.801 1.327 1.957.171.752-.752 1.496-1.967 1.653-2.7s1.319-2.18 2.583-3.217 2.127-2.393 1.92-3.015c-.427-1.281 1.62-3.65 3.153-3.65.557 0 1.334.52 1.726 1.154.484.784.262.883-.691.308-1.196-.721-1.201-.596-.032.845 1.085 1.338 1.103 1.692.083 1.692-.709 0-1.007.282-.662.627s-.067 1.969-.916 3.61-1.055 2.682-.46 2.314c1.581-.977 1.332 2.343-.298 3.973-.76.76-1.615 1.147-1.9.862s-.452.298-.369 1.298.898 2.377 1.812 3.062 1.511 2.035 1.327 3-.37 2.087-.412 2.492-6.174.719-13.627.696c-13.443-.041-13.546-.059-13.009-2.238.298-1.208.282-1.631-.035-.94s-.988 1.002-1.491.691-.915.096-.915.904c0 1.22-2.336 1.474-13.75 1.498-11.817.024-14.284-.251-17.55-1.96zm48.73-3.002c-.852-1.379-3.43-1.043-3.43.447 0 .733.296 1.629.658 1.991.904.904 3.452-1.337 2.772-2.438zm12.57 4.113c0-.55.423-1 .941-1s1.219.45 1.559 1-.084 1-.941 1-1.559-.45-1.559-1zm4.832-1.47c-.859-1.886-.827-2.83.135-3.989.693-.835 1.689-1.254 2.214-.929s.72.823.434 1.108.116 1.153.891 1.929c1.637 1.637.93 4.352-1.134 4.352-.778 0-1.921-1.112-2.54-2.47zm7.092 1.22c-.042-.687-.228-2.04-.412-3.005s.457-2.315 1.427-3 1.649-2.002 1.511-2.926.304-1.894.983-2.155 1.235.158 1.235.931-.488 1.419-1.083 1.436-.183.712.917 1.543c2.401 1.814 2.552 3.187.68 6.175-1.502 2.398-5.129 3.088-5.257 1zm7.077.25c0-.55.675-1 1.5-1s1.5.45 1.5 1-.675 1-1.5 1-1.5-.45-1.5-1zm18-.092c0-.38-1.012-.977-2.25-1.327s-3.342-2.086-4.676-3.858-1.842-2.695-1.128-2.051 1.984.909 2.821.588c.85-.326 2.089.19 2.805 1.169.895 1.224 1.948 1.542 3.488 1.053 1.57-.498 1.842-.925.945-1.479a1.45 1.45 0 0 1-.478-2.045c.51-.824.38-1.017-.372-.553-.635.392-1.154.214-1.154-.397s1.593-1.776 3.54-2.589 3.33-1.819 3.073-2.235c-.727-1.177-5.309-.681-7.048.762-.916.76-1.565.868-1.565.26 0-.572.563-1.227 1.25-1.456s1.306-1.392 1.375-2.583c.224-3.876.355-4.167 1.89-4.167.833 0 2.318 1.321 3.3 2.935 1.717 2.824 1.832 2.86 3.018.961.678-1.086 1.668-1.705 2.2-1.376s.967-.13.967-1.02-.45-1.34-1-1-1 .19-1-.334c0-1.121 2.564-2.268 3.338-1.494.294.294.109 1.65-.409 3.015s-.712 2.855-.43 3.312-.019 1.008-.67 1.225c-.766.255-.866.903-.284 1.835 1.96 3.142 1.123 5.208-1.178 2.908-.711-.711-1.033-.555-1.033.5 0 .843.209 1.324.465 1.069s1.235-.053 2.176.451c1.385.741 1.688.496 1.589-1.285-.067-1.211-.449-2.724-.848-3.363-.456-.732-.106-1.071.946-.917 1.783.262 2.729 3.219 1.31 4.096-.467.289-.678 1.416-.468 2.504s.012 1.979-.439 1.979-.704 1.366-.562 3.036l.258 3.036-6.881-.236c-3.784-.13-6.881-.547-6.881-.928zm4-3.03c0-1.206-2.738-1.11-3.5.122-1.081 1.749.522 3.227 2.089 1.926.776-.644 1.411-1.566 1.411-2.049zm16.015 3.44c.033-1.774 1.768-3.425 3.755-3.575 1.15-.087 1.899-.467 1.666-.845-.759-1.227 2.286-1.775 3.442-.619 1.634 1.633 1.375 3.397-.628 4.278-2.655 1.169-8.252 1.686-8.235.761zm15.19-.886c-1.232-.863-2.004-1.949-1.716-2.415s-.033-1.032-.713-1.258c-.978-.326-.973-.919.025-2.835.694-1.333 1.045-1.659.781-.724-.319 1.13-.027 1.525.87 1.181 2.002-.768.925-4.863-1.286-4.887-.367-.004-1.649-.701-2.851-1.548-1.56-1.101-1.922-1.955-1.265-2.993.505-.799.932-1.002.949-.452s.513.325 1.102-.5c.856-1.198.969-1.036.563.807-.392 1.781-.219 2.067.761 1.254.926-.768 1.753-.519 3.055.919.982 1.085 2.288 1.663 2.902 1.285s.318.532-.657 2.024-1.483 2.711-1.128 2.711.043.787-.694 1.75-.945 1.415-.462 1.006 1.521.175 2.307 1.298c1.08 1.542 1.753 1.773 2.751.945.966-.802 1.521-.773 2.064.107.503.813.32.941-.565.394-.873-.539-1.068-.419-.585.362.398.644 1.142.912 1.654.595s.931.126.931.984c0 2.094-5.8 2.088-8.794-.009zm-.632-13.205c-1.728-1.65-1.755-1.623-.609.609.659 1.285 1.472 2.061 1.807 1.726s-.204-1.386-1.198-2.336zm11.601 12.459c-2.232-2.376-2.958-6.588-1.174-6.811.55-.069 1.45-.238 2-.375l1.75-.419c.413-.093-.966-1.074-3.062-2.181-2.923-1.543-3.734-2.523-3.476-4.206.185-1.207.872-2.087 1.526-1.956 2.335.467.065-2.577-2.81-3.768-2.946-1.22-3.819-3.301-1.886-4.496 1.159-.716 9.996 5.629 9.34 6.707-.228.375.112 1.006.756 1.405.731.452.903.29.457-.431-.392-.635-.185-1.155.462-1.155.715 0 .988.98.698 2.5-.263 1.375-.064 2.5.442 2.5s.689.375.405.833.14.833.941.833 1.456-.445 1.456-.988.9-.174 2 .822c1.777 1.608 2 1.628 2 .178 0-.898-1.238-2.428-2.75-3.4s-3.563-2.774-4.558-4.004-2.303-2.132-2.908-2.005-1.19-1.096-1.299-2.718c-.117-1.746-1.073-3.529-2.342-4.372-1.179-.783-2.144-2.044-2.144-2.802 0-1.317.43-1.552 3.25-1.778 2.86-.229 2.996-4.6.143-4.6-1.23 0-1.493-.493-1.357-2.536.062-.926-2.843-3.464-3.964-3.464-.589 0-1.071-.642-1.071-1.427 0-1.817 2.984-2.483 5.204-1.163.937.558 2.059.659 2.492.227s-.109-1.304-1.204-1.936c-1.952-1.126-2.512-1.324-4.456-1.576-.53-.069-2.033-1.698-3.339-3.62s-2.617-3.253-2.913-2.957-.792-.124-1.102-.932.171-2.065 1.068-2.793c1.389-1.126 1.501-1.1.749.177-.726 1.231-.616 1.284.611.291 1.177-.952 2.072-.909 4.216.203 1.497.777 2.936 1.433 3.197 1.459a4.83 4.83 0 0 1 .726.123c.892.273 3.684.904 6.25 1.414 1.65.327 3.563 1.337 4.25 2.244s1.25 1.208 1.25.67.9-1.046 2-1.129 2.007.384 2.015 1.037c.011.829.264.795.84-.112.454-.715.925-6.652 1.047-13.193l.222-11.893-6.043-.684c-3.324-.376-5.824-1.038-5.556-1.471s-.046-.965-.697-1.182c-3.001-1 4.693-4.955 9.885-5.08 1.339-.032 2.838-7.817 1.95-10.129-.41-1.068-1.308-1.255-3.362-.7-5.045 1.365-11.584.818-11.85-.991-.238-1.623 1.019-2.162 11.297-4.844l4.25-1.109v-5.404c0-5.824.332-5.602-6-4.019-10.002 2.501-11.614 2.797-14.25 2.618-1.846-.125-2.51-3.118-.691-3.118.582 0 .738-.52.345-1.154-.426-.689-.276-.884.372-.484.597.369 1.373.206 1.724-.362s1.127-.731 1.724-.362c.648.4.798.205.372-.484-.392-.635-.263-1.154.288-1.154s.814-.975.584-2.166c-.303-1.574.701-3.145 3.675-5.75 10.706-9.378 12.298-10.977 11.609-11.666-.407-.407-1.53-.03-2.496.838-3.607 3.241-16.189 9.706-17.735 9.113-.96-.368-2.356.286-3.551 1.665-1.084 1.249-1.97 1.991-1.97 1.648s-2.916 2.25-6.48 5.761-7.2 6.279-8.08 6.15c-1.822-.267-3.553-2.602-2.815-3.796.271-.439-.01-.798-.625-.798s-.84-.45-.5-1-.106-1-.991-1c-1.213 0-1.377-.413-.668-1.681.637-1.139.528-2.093-.34-2.961-.922-.922-1.208-4.437-1.022-12.569l.258-11.289 1097.3-.502v150l-457.01-.007-459-2.001c-1.097-1.097-1.994-3.319-1.994-4.938 0-1.918-.783-3.492-2.25-4.519-2.053-1.438-2.353-1.434-3.433.043-1.529 2.091-3.317.969-3.317-2.081 0-1.31-.389-2.622-.865-2.916-1.655-1.023-.693-5.091 1.168-4.939 1.402.115 1.527-.143.609-1.25-.637-.767-.898-1.395-.581-1.395s-.528-1.105-1.878-2.455c-2.546-2.546-3.186-4.545-1.455-4.545.55 0 1-.477 1-1.059 0-.597-.545-.718-1.25-.278-3.105 1.94-4.915.902-2.55-1.463.933-.933.798-1.2-.607-1.2-1.124 0-1.607-.521-1.278-1.378.291-.758.082-1.825-.463-2.37-.9-.9 1.134-1.002 4.648-.233 2.737.598 3.56-.037 2.534-1.956-.951-1.777-.757-1.892 2.338-1.39 1.912.31 3.66.086 4.033-.518.77-1.246-3.2-6.154-4.978-6.154-.667 0-1.491-.726-1.832-1.614-.524-1.364-.077-1.512 2.893-.955 2.197.412 3.512.267 3.512-.386 0-.575-.675-1.045-1.5-1.045s-1.5-.441-1.5-.98-1.833-1.915-4.074-3.058c-3.324-1.696-3.857-2.34-2.895-3.499.851-1.025 1.689-1.148 3.014-.439 1.229.658 2.049.635 2.484-.07s1.172-.628 2.253.247c1.326 1.074 1.462 1.065.79-.051-.677-1.125-.418-1.133 1.558-.049 1.304.715 3.235 1.444 4.292 1.62s2.545.836 3.306 1.468 1.306.736 1.21.23c-.466-2.448.108-3.628 1.312-2.697 1.843 1.426 4.943 2.399 4.293 1.347-.309-.499.157-1.626 1.034-2.504 1.461-1.461 1.288-1.724-2.047-3.118-2.843-1.188-3.576-2.008-3.336-3.735.328-2.365-.724-2.582-6.652-1.373-3.438.701-4.739-.704-3.867-4.177.568-2.263.402-2.341-4.292-2.008-4.265.302-4.882.103-4.882-1.571 0-1.249 1.045-2.252 3-2.88 1.65-.53 3.675-1.536 4.5-2.235s3.398-1.832 5.717-2.518 3.991-1.613 3.715-2.06 1.313-1.74 3.533-2.872 4.035-2.227 4.035-2.434-2.779.49-6.175 1.547-6.433 1.557-6.75 1.112-1.138-.739-1.825-.652-1.893.215-2.679.283-2.023.69-2.75 1.381-2.583 1.32-4.125 1.398c-2.105.106-2.726-.269-2.492-1.506.296-1.567 13.866-6.907 17.987-7.078.93-.038 1.999-.568 2.375-1.177.449-.726.028-.899-1.223-.502-1.501.476-1.951.073-2.114-1.893-.134-1.624.307-2.498 1.262-2.498 2.216 0 9.509-3.1 9.509-4.042 0-1.075-4.635-.217-8.477 1.569-1.663.773-4.598 1.687-6.523 2.031-7.263 1.298-13.801 3.311-14.517 4.469-.936 1.514-3.15 1.144-3.15-.527 0-.825.402-1.5.892-1.5s.644-.402.34-.893c-.442-.715 3.107-2.209 5.434-2.287.275-.009 1.327-.459 2.338-1 1.807-.967 5.956-2.004 8.412-2.102.688-.028 1.046-.254.798-.502-.74-.74 2.68-3.707 4.381-3.801.864-.047 2.246-.364 3.071-.704s4.087-1.345 7.25-2.235 5.75-2.01 5.75-2.489c0-.924-3.177-.444-8.5 1.285-4.228 1.373-9.465 2.171-12.25 1.865-1.512-.166-1.693-3.137-.191-3.137.582 0 .721-.562.308-1.25-.498-.828-.172-.781.964.141 1.516 1.231 1.635 1.183 1.022-.414-.517-1.348-.353-1.596.647-.977.974.602 1.169.382.714-.804-.344-.898-.169-1.915.39-2.26.606-.374.285-1.167-.794-1.964-1.573-1.161-2.159-1.004-4.479 1.205-4.501 4.286-5.549 1.656-1.172-2.94 4.484-4.708 2.247-4.414-4.315.566-4.995 3.791-8.344 9.256-8.344 13.614 0 3.447-2.592 5.336-4.086 2.978-.64-1.011-.888-.657-.899 1.283-.015 2.611-2.253 5.821-4.057 5.821-.495 0-2.017-2.444-3.383-5.431-2.494-5.451-2.555-6.497-.999-16.918.549-3.677.386-5.059-.676-5.72-1.647-1.025-2.646 1.561-2.8 7.247-.055 2.03-.871 4.45-1.82 5.399s-1.959 3.693-2.25 6.104c-.747 6.181-2.422 5.421-3.111-1.413-.32-3.173-.658-4.783-.75-3.578-.193 2.514-2.346 4.276-2.963 2.425-.302-.907-.902-.795-2.241.416-1.728 1.564-1.932 1.444-3.74-2.189-3.865-7.768-5.701-10.142-9.001-11.638-3.196-1.449-3.291-1.437-1.797.214.868.959 1.313 2.008.99 2.331s.38 1.106 1.562 1.739c1.708.914 1.909 1.441.98 2.561-1.708 2.058-6.033 1.385-6.972-1.085-.471-1.24-2.491-2.642-5-3.469-2.563-.846-4.619-2.29-5.258-3.692-.577-1.267-1.454-2.303-1.948-2.303s-.618.453-.276 1.007c.969 1.568-2.552 2.444-4.623 1.151-2.922-1.825-4.408-1.398-2.494.717 2 2.21 1.789 4.121-.657 5.946-1.446 1.079-2.454 1.089-5.5.055-2.051-.696-4.283-1.362-4.96-1.479s-1.883-.866-2.681-1.665-2.945-1.386-4.77-1.306c-1.967.086-4.109-.583-5.259-1.642-1.067-.983-2.192-1.448-2.5-1.035s-1.235.901-2.06 1.085-1.189.022-.809-.357c1.228-1.228-3.678-5.61-5.5-4.911-.924.355-1.46 1-1.191 1.435s-.184 1.049-1.006 1.364-1.494 1.458-1.494 2.538c0 1.4.79 2.056 2.75 2.281 2.495.287 2.718.641 2.404 3.816-.19 1.925-.018 3.178.381 2.785 1.087-1.069 4.464 1.058 4.464 2.813 0 .856.769 1.449 1.75 1.35 4.555-.463 6.404 2.119 3.676 5.134-.892.986-1.326 2.271-.965 2.855s.154 1.063-.461 1.063-.843.445-.507.989c.35.567-.051.735-.941.393-.975-.374-1.552-.041-1.552.895 0 2.104 4.637 2.737 9.445 1.29 4.818-1.45 6.555-1.069 6.555 1.437 0 1.238-1.002 2.057-3.071 2.512-2.076.456-2.896 1.129-2.531 2.08.351.913-.15 1.405-1.429 1.405-1.083 0-1.969.415-1.969.922s-1.575 1.442-3.5 2.078-3.5 1.597-3.5 2.137.399.735.887.433c1.101-.681 3.342 1.868 2.438 2.772-1.025 1.025.589.774 2.868-.445 1.574-.843 2.254-.791 2.877.216.934 1.512-.67 3.887-2.625 3.887-.721 0-1.58.852-1.911 1.892s-1.921 2.439-3.534 3.108c-3.403 1.409-5.997 4-4.006 4 .778 0 1.063.918.767 2.47-.314 1.641-.101 2.238.633 1.778.608-.38 1.677-.778 2.376-.884s2.128-1.244 3.176-2.528c1.745-2.139 1.964-2.185 2.601-.548.813 2.089-1.356 4.814-6.231 7.827-3.654 2.258-4.112 3.367-1.764 4.268.854.328 1.296.182.984-.324s-.133-1.188.398-1.517c1.471-.909 3.315 3.331 2.632 6.052-.332 1.324-1.271 2.407-2.085 2.407-1.669 0-5.481 3.473-5.481 4.994 0 .547 1.012.805 2.25.574s2.625-.453 3.083-.494 2.392-1.679 4.297-3.641c4.14-4.264 7.018-5.116 7.899-2.341.455 1.434-.741 3.533-4.454 7.819-2.792 3.222-5.069 6.248-5.06 6.723s.452.189.985-.636c.804-1.244.975-1.159 1 .5s.196 1.744 1 .5c.533-.825.976-1.013.985-.417s-.322 1.421-.735 1.833c-1.545 1.545-.772 5.086 1.229 5.627 3.132.847 2.99 3.789-.388 7.992-1.7 2.116-3.091 4.912-3.091 6.214s-.661 3.241-1.468 4.309c-1.742 2.304-1.911 3.441-.51 3.441.562 0 1.546-1.15 2.186-2.556.848-1.86 1.862-2.512 3.729-2.394 3.811.241 5.079.035 4.93-.8-.253-1.421 1.369-7.172 2.001-7.093 3.376.423 4.319-.279 3.698-2.753-.878-3.497 1.028-5.653 4.352-4.922 2.207.485 2.887.036 4.506-2.97 2.412-4.479 3.899-5.709 5.949-4.922 2.04.783 2.072 2.801.091 5.825-1.381 2.108-1.381 2.403 0 2.933.845.324 1.536 1.053 1.536 1.621 0 1.388-2.737 1.321-3.203-.078-.241-.722-.793-.6-1.58.348-.977 1.177-.781 1.824 1.019 3.36 2.198 1.875 2.208 1.874.746-.04-1.084-1.42-1.122-1.725-.14-1.133.922.555 2.71-.717 5.705-4.058 2.399-2.677 4.382-4.278 4.407-3.558.025.73.555.994 1.199.595.635-.392.908-.306.607.191s-.844 3.123-1.207 5.835-.887 5.298-1.164 5.746c-1.042 1.686-1.233 4.802-.329 5.361.516.319.979 1.566 1.029 2.771.066 1.604.345 1.307 1.041-1.106 1.038-3.599 3.358-5.114 5.126-3.346 1.375 1.375 1.871 4.143.743 4.143-.957 0-.721 2.691.304 3.471.383.291.49.248.239-.095s.702-2.143 2.119-4c2.705-3.547 5.337-4.288 7.209-2.032.859 1.035.281 2.416-2.511 6-1.995 2.561-4.003 4.656-4.462 4.656s-.556.728-.214 1.617c.522 1.361.813 1.258 1.835-.651.887-1.658 1.354-1.891 1.732-.867.401 1.086.656 1.007 1.134-.349 1.757-4.989 4.133-8.9 4.924-8.109.346.346.429-.411.184-1.682s-1.018-2.675-1.719-3.12c-1.012-.642-.998-.811.069-.823 3.181-.036 6.417-3.984 6.771-8.262.194-2.339.551-5.153.793-6.253s.482-3.125.533-4.5c.14-3.809 1.482-5.318 4.014-4.515 2.031.645 2.178 1.232 1.889 7.537-.173 3.761-.095 6.982.172 7.158s.39.148.271-.062c-.585-1.039 1.961-4.084 2.919-3.492.666.412.821.225.391-.472-.392-.635-.287-1.154.234-1.154s.885-.787.809-1.75c-.09-1.13.57-1.75 1.861-1.75 1.895 0 1.992.616 1.847 11.749-.084 6.462.141 11.572.5 11.355.807-.487 2.545 1.488 2.964 3.368.171.767.449 3.547.618 6.18l.307 4.786-27.286.029c-20.882.022-27.404-.264-27.789-1.219-.401-.994-.519-.994-.582.003-.059.935-3.509 1.25-13.686 1.25-11.472 0-13.52-.227-13.051-1.449.372-.969.075-1.265-.893-.893-.797.306-1.449.958-1.449 1.449s-7.797.893-17.326.893c-16.817 0-17.389-.068-19.5-2.314zm286.33-.686a2.33 2.33 0 0 0-1.809-.985c-.716.009-.592.402.309.985 1.921 1.242 2.267 1.242 1.5 0zm-14.337-4.237c-.976-.976-.984-.735-.124 3.737.106.55.408.165.67-.856s.017-2.317-.547-2.881zm-219.16 2.237c0-.55-.477-1-1.059-1s-.781.45-.441 1 .816 1 1.059 1 .441-.45.441-1zm189-3c0-1.035.45-2.16 1-2.5s.985-1.154.967-1.809-.918-.129-2 1.17c-2.018 2.423-2.76 6.747-.967 5.639.55-.34 1-1.465 1-2.5zm186 .274c0-1.895-1.294-.882-1.608 1.259-.119.812.194 1.222.696.912s.912-1.287.912-2.171zm-150.02-.024c-.008-.963-.396-2.35-.861-3.084-.681-1.074-.964-1.025-1.453.25-.334.871-.186 1.584.329 1.584s.678.675.362 1.5-.077 1.5.531 1.5 1.1-.787 1.092-1.75zm-224-1c-.008-.963-.396-2.35-.861-3.084-.558-.88-.808-.286-.735 1.748.114 3.184 1.623 4.447 1.595 1.336zm150 0c-.008-.963-.396-2.35-.861-3.084-.558-.88-.808-.286-.735 1.748.114 3.184 1.623 4.447 1.595 1.336zm69.415-1.83c-.339-1.871-.115-2.401.816-1.928.706.359.047-.41-1.466-1.708-1.838-1.578-2.755-3.342-2.765-5.322-.01-1.969-.295-2.522-.849-1.648-1.124 1.772-.241 5.892 2.119 9.893 2.341 3.967 2.76 4.107 2.145.712zm-216.86-4.351c-.316-.512-.118-1.214.441-1.559s1.016-1.138 1.016-1.76-.635-.264-1.411.798c-1.276 1.745-1.262 3.452.029 3.452.275 0 .241-.419-.075-.931zm-54.746-3.024c-.671-1.075-1.414-1.761-1.651-1.524-.429.429 1.751 3.479 2.486 3.479.212 0-.163-.88-.835-1.954zm275.81-.627c-.334-.87-.607-2.07-.607-2.667s-.296-.789-.658-.427-1.268.151-2.014-.468c-1.09-.905-1.27-.658-.916 1.259.242 1.311.473 2.722.514 3.134s1.022.75 2.181.75c1.51 0 1.935-.448 1.5-1.582zm-35.816-1.882c-.313-2.187-3.124-2.306-5.638-.238-1.11.913-1.055 1.21.315 1.691 3.513 1.232 5.626.656 5.324-1.453zm183.49.449c-.496-1.895-2.286-3.836-2.286-2.478 0 .85 1.98 4.493 2.442 4.493.204 0 .134-.907-.156-2.016zm-33.286-.484c0-.825-.436-1.5-.969-1.5s-.71.675-.393 1.5.752 1.5.969 1.5.393-.675.393-1.5zm-331.54-.819c.944-.944 1.033-1.831.312-3.119-.718-1.283-.65-2.021.237-2.569.684-.423.912-1.307.506-1.964-.496-.802-1.336-.213-2.554 1.79-1.487 2.445-1.792 4.476-1.04 6.931.19.62 1.33.14 2.539-1.069zm150.43-5.484c.531-.992.605-2.388.164-3.101-.537-.87-.952-.275-1.257 1.804-.521 3.553-.272 3.849 1.093 1.297zm26.273-.664c.093-1.118.229-6.769.303-12.558.141-11.084.62-12.974 3.288-12.974 1.276 0 1.374.267.441 1.2-.703.703-1.145 3.706-1.068 7.25.106 4.887.251 5.379.75 2.561.41-2.313 1.248-3.609 2.487-3.846 1.301-.249 1.631.027 1.085.91-.431.697-.884 2.779-1.008 4.627-.172 2.564.067 3.118 1.007 2.338.678-.562 1.528-.726 1.89-.364s.658-.022.658-.854.889-2.317 1.976-3.3 1.759-2.14 1.494-2.57.083-1.049.774-1.376-.206-.377-1.994-.11c-4.456.665-4.089-.162.635-1.434 4.037-1.087 5.073-2.757 5.101-8.222.015-3.015 1.83-4.724 3.003-2.826.421.681.543 2.089.272 3.128-.609 2.329.497 2.418 2.91.234 1.971-1.784 1.845-2.026 2.171 4.155.138 2.622.662 3.126 4.158 4 2.2.55 4.635 1.409 5.412 1.909.989.637 1.945.251 3.194-1.292 1.579-1.95 2.373-2.123 6.97-1.513 4.203.558 5.101.423 4.729-.708-.253-.768-1.662-1.539-3.132-1.713s-2.673-.798-2.673-1.386c0-1.058 6.301-.621 10.545.731 1.872.596 1.87.571-.045-.601-1.1-.673-2.805-2.057-3.789-3.076-1.149-1.19-3.205-1.852-5.75-1.852-2.854 0-3.961-.419-3.961-1.5 0-.905.926-1.5 2.333-1.5 1.283 0 2.643-.309 3.02-.687 1.137-1.137 4.645-1.058 4.662.104.008.596.396.482.862-.253s1.195-1.184 1.62-1 1.154-.692 1.618-1.947c.711-1.923.415-2.456-1.885-3.386-1.501-.607-5.584-1.196-9.073-1.309-3.965-.128-6.647-.698-7.155-1.519-.446-.722-2.254-1.272-4.017-1.222-2.343.067-3.338-.415-3.697-1.788-.288-1.101-1.556-2.007-3.063-2.186-1.414-.169-2.714-.757-2.888-1.307-.327-1.034 8.25-5.194 9.793-4.75.478.138.87-.388.87-1.167s.563-1.615 1.25-1.856-1.225-.222-4.25.043-6.022.898-6.661 1.405c-.732.582-1.426.494-1.878-.238-.841-1.361 1.192-2.868 4.039-2.996 1.1-.049 3.8-.966 6-2.038s3.1-1.712 2-1.423c-1.971.518-1.972.504-.059-.977 1.068-.826 2.305-1.502 2.75-1.502s.809-.46.809-1.023-1.105-.299-2.456.586-2.954 1.301-3.563.925-2.004.127-3.1 1.119c-1.553 1.405-2.381 1.561-3.752.705-1.183-.739-2.335-.776-3.519-.114-3 1.679-3.262-.248-.325-2.388 2.03-1.479 2.503-2.362 1.75-3.269-.723-.871-.565-2.178.529-4.37 1.048-2.101 1.258-3.668.638-4.776-.769-1.375-1.039-1.172-1.631 1.228-.998 4.05-5.51 11.532-6.562 10.882-.483-.298-.628-2.222-.324-4.274.51-3.433.437-3.58-.914-1.829-.808 1.047-1.955 1.602-2.551 1.234s-1.37-.204-1.721.364c-1.139 1.843-2.679-.149-2.052-2.651.394-1.572.044-3-.991-4.035-1.528-1.528-1.48-3.485.19-7.837.523-1.362.248-1.579-1.355-1.07-1.261.4-2.504.043-3.334-.958-.728-.878-3.064-2.483-5.19-3.568s-4.123-2.643-4.438-3.464-1.781-2.117-3.257-2.88c-2.404-1.243-2.804-1.197-3.826.438-1.054 1.688-1.46 1.717-5.334.382-3.959-1.364-4.32-1.325-6.477.701-2.097 1.971-2.597 2.04-6.11.848-2.104-.714-4.456-1.405-5.226-1.536s-1.734-.778-2.142-1.439c-1.108-1.792-8.958-2.182-8.958-.444 0 .761 1.232 1.521 2.75 1.695 2.122.244 2.672.773 2.408 2.316-.188 1.1-.703 2.134-1.144 2.298s-.574 1.169-.296 2.234c.5 1.911.539 1.91 3.001-.026 1.904-1.498 2.942-1.722 4.388-.949 2.625 1.405 2.536 4.282-.107 3.443-1.147-.364-2-.18-2 .433 0 1.414 3.299 1.369 4.733-.065 1.836-1.836 4.246-.29 3.639 2.333-.293 1.265-.558 2.975-.588 3.8s-.528 2.097-1.105 2.826c-1.556 1.966.87 3.065 4.806 2.178 1.804-.407 3.693-.995 4.196-1.306s1.54-.18 2.304.292c2.198 1.359-.617 3.996-4.356 4.081-2.286.051-2.645.261-1.336.778 1.499.592 1.041 1.237-2.8 3.944-5.155 3.634-5.101 5.732.122 4.752 2.729-.512 3.385-.317 3.385 1.004 0 .901-.885 1.87-1.967 2.153s-2.237 1.366-2.567 2.406-1.02 1.948-1.533 2.017l-2.183.293c-.687.093-2.748-.434-4.578-1.171-2.951-1.188-3.688-1.126-6.5.539-1.986 1.176-3.055 2.53-2.861 3.62.171.958-.279 2.456-1 3.329-1.184 1.433-1.073 1.45 1.15.176 1.354-.776 3.073-1.973 3.821-2.661 1.552-1.426 3.217-1.646 3.217-.424 0 .454-1.091 1.85-2.424 3.103-1.963 1.844-2.353 3.048-2.052 6.337.372 4.068-.608 6.961-3.256 9.609-.802.802-1.011 1.678-.484 2.021.513.333.811 1.392.662 2.355-.332 2.15-.021 2.181 1.964.196 2.439-2.439 5.403-2.608 6.119-.349.432 1.362-.339 3.059-2.515 5.539-3.511 3.999-3.283 5.904.303 2.535 3.059-2.873 3.88-2.737 3.498.579-.254 2.206.275 3.047 2.67 4.253 3.957 1.991 4.288 4.578 1.023 7.986-1.645 1.717-2.267 3.043-1.617 3.445.581.359 2.652-.989 4.602-2.996 3.041-3.132 3.77-3.463 5.133-2.332s1.874.925 3.564-1.394c2.385-3.274 3.138-3.348 5.736-.56l2.005 2.152 1.919-2.37c1.675-2.068 2.132-2.193 3.589-.984 1.532 1.272 1.439 1.578-1.135 3.716-2.101 1.746-2.303 2.167-.805 1.68 1.1-.358 2.759-1.302 3.687-2.097 2.216-1.899 4.155-.757 2.851 1.679-.532.994-.659 2.117-.282 2.494s.193.999-.409 1.382c-.693.44-.787 1.519-.256 2.937 1.111 2.968 5.828 2.805 6.078-.21zm6.644-24.215c.722-.289 1.584-.253 1.917.079s-.258.569-1.312.525c-1.165-.048-1.402-.285-.604-.604zm-95.69 22.713c-2.827-2.417-3.683-2.698-5.25-1.719-1.944 1.214-2.573 3.689-.938 3.689.514 0 2.054-.426 3.423-.946 1.849-.703 2.796-.575 3.688.5.66.795 1.482 1.427 1.827 1.405s-.892-1.34-2.75-2.929zm-5.123-2.914c0-1.346-3.908-2.075-4.654-.868-.361.583-.227.796.297.472s1.606-.175 2.404.33c1.816 1.149 1.952 1.153 1.952.066zm-106.05-7.454c-.246-.219-1.533 1.005-2.861 2.72l-2.414 3.118 2.861-2.72c1.574-1.496 2.66-2.899 2.414-3.118zm203.72 2.088c-.277-.687-.504-.125-.504 1.25s.227 1.938.504 1.25.277-1.812 0-2.5zm145.88 1.319c-.316-.512-.172-1.18.32-1.484 1.515-.936.455-6.988-1.413-8.069-.965-.559-2.461-1.803-3.325-2.766s-2.043-1.75-2.622-1.75c-1.311 0-9.503-8.611-9.503-9.99 0-.556.675-1.01 1.5-1.01 2.12 0 1.86-1.294-.564-2.808-1.135-.709-1.903-2.055-1.705-2.991s-.529-2.499-1.614-3.473c-1.259-1.131-1.626-2.119-1.014-2.731s1.858-.125 3.445 1.346c1.367 1.268 3.775 3.15 5.35 4.182l2.865 1.877-1.525-4.804 2.786 1.825c2.954 1.936 2.904 2.095.897-2.85-.421-1.037-.03-1.284 1.426-.903 2.649.693 2.302-1.951-.613-4.667-1.65-1.537-3.529-2.003-8.083-2.003-3.687 0-7.55-.724-10.205-1.913-3.272-1.465-4.879-1.683-6.859-.93-1.423.541-2.586 1.028-2.586 1.082s-.965-.418-2.145-1.049c-1.724-.923-2.402-.838-3.456.432-1.484 1.788-1.77 2.95-2.361 9.594-.254 2.853-1.431 6.204-2.979 8.482-1.408 2.071-2.559 4.75-2.559 5.953 0 2.031.259 2.116 3.62 1.188 4.394-1.213 6.099-.052 4.45 3.031-.963 1.799-.873 1.998.657 1.452.975-.348 2.264-1.009 2.865-1.469 1.663-1.273 2.384.081 1.408 2.647-.48 1.262-.612 2.555-.294 2.873s-.013 1.291-.735 2.162c-1.121 1.35-.866 2.031 1.729 4.626l3.043 3.043 1.373-3.102c1.755-3.965 5.438-4.44 4.468-.576-.585 2.329-.427 2.474 2.03 1.857 1.465-.368 3.389-.747 4.275-.844 2.036-.221 5.979-2.057 8.745-4.073 1.924-1.402 2.285-1.403 3.679-.01.85.85 2.042 1.545 2.65 1.545.636 0 .936 1.168.707 2.75-.219 1.513.045 3.313.588 4 1.144 1.449 2.135 1.696 1.285.319zm-188.54-1.569c0-.157-.6-.516-1.333-.798s-1.333.078-1.333.798.6 1.079 1.333.798 1.333-.64 1.333-.798zm67.574-4.274c-1.728-1.65-1.755-1.623-.609.609.659 1.285 1.472 2.061 1.807 1.726s-.204-1.386-1.198-2.336zm115.43.044c0-1.234-.279-1.284-1.5-.271-.825.685-1.5 1.626-1.5 2.091s.675.587 1.5.271 1.5-1.258 1.5-2.091zm138.33-1.965c1.193-1.516 2.506-2.175 3.628-1.819.967.307 2.306-.102 2.976-.909 1.018-1.226.369-1.897-3.952-4.087-5.669-2.873-5.78-2.833-9.096 3.257-1.648 3.026-.242 4.202 1.704 1.424.85-1.213 1.987-1.933 2.527-1.6.561.347-.111 2.039-1.568 3.95-1.403 1.839-2.55 3.614-2.55 3.945 0 1.144 4.468-1.794 6.332-4.163zm-509.6 2.09c-.332-.332-1.195-.368-1.917-.079-.798.319-.561.556.604.604 1.054.043 1.645-.193 1.313-.525zm258.7-3.3c-1.75-1.633-5.707-2.416-5.247-1.038.232.697 1.227 1.386 2.21 1.53s2.046.521 2.362.837.808.343 1.092.058.097-.909-.417-1.388zm-253.43.105c0-1.028-5.987-3.201-8.821-3.201-3.524 0-2.493 1.993 1.071 2.07 1.788.039 4.15.457 5.25.93 2.624 1.127 2.5 1.118 2.5.201zm264.86-.091c1.031-.653 1.068-1.038.154-1.603-.663-.41-1.929-.017-2.821.875-1.349 1.349-1.375 1.616-.154 1.603.805-.008 2.075-.402 2.821-.875zm-122.36-2.11c-.34-.55-1.379-.968-2.309-.93-1.379.057-1.321.229.309.93 2.676 1.15 2.711 1.15 2 0zm-8.421-2.405c-.985-1.187-2.481-1.364-5.079-.601-.774.227 3.328 1.857 4.872 1.936 1.066.055 1.112-.243.206-1.335zm360.65-2.901c.584 1.745 3.27.393 3.27-1.646 0-.956-.879-2.533-1.953-3.505-1.889-1.71-1.973-1.674-2.569 1.095-.339 1.574-1.035 3.896-1.547 5.159-1.46 3.603-1.015 4.007.774.703.894-1.65 1.805-2.463 2.024-1.806zM862 100.236c0-.486-1.129-1.099-2.509-1.363-2.031-.388-2.293-.22-1.378.883 1.264 1.523 3.886 1.846 3.886.48zM732.67 88.405c0-1.433-3.248-1.772-4.081-.425-.726 1.175-.036 1.711 2.199 1.711 1.034 0 1.881-.579 1.881-1.286zm121.47-1.319c-1.298-1.082-3.22-1.967-4.27-1.967s-3.588-1.036-5.639-2.302c-3.516-2.17-7.23-2.546-7.23-.731 0 1.071 2.923 2.347 5.7 2.488 1.21.061 2.522.434 2.917.829s1.654.733 2.8.752 3.208.679 4.583 1.465c3.484 1.991 3.923 1.786 1.139-.533zm-110.58-.499c-2.16-1.634-5.559-1.971-5.559-.552 0 1.182 1.854 1.913 5 1.973 2.411.046 2.431-.005.559-1.421zm72.441.154c0-.208-.788-.995-1.75-1.75-1.586-1.244-1.621-1.209-.378.378 1.306 1.666 2.128 2.195 2.128 1.372zm-6-1.681c0-.582-.47-.769-1.044-.414s-1.812.044-2.75-.691c-1.537-1.203-1.57-1.162-.334.414 1.51 1.925 4.128 2.363 4.128.691zm25.29-4.941c-.327-1.252-.031-2 .794-2 3.085 0-.883-1.89-4.583-2.183-4.738-.375-5.2-1.918-.992-3.317 3.25-1.081 3.558-1.928 1.805-4.967-1.044-1.809-1.355-1.849-3.888-.5-2.137 1.139-2.846 1.187-3.172.217-.627-1.868-2.036-1.509-2.737.699-.34 1.072-1.559 2.248-2.71 2.612-1.846.586-1.518 1.024 2.801 3.739 3.729 2.344 11.541 6.91 13.049 7.626.086.041-.079-.826-.367-1.926zm149.46-.25c-.229-.687-1.265-1.414-2.302-1.615-1.631-.316-1.705-.148-.545 1.25 1.586 1.911 3.44 2.149 2.846.365zm-364.62-1.5c1.244-1.586 1.208-1.621-.378-.378-1.666 1.306-2.196 2.128-1.372 2.128.208 0 .995-.787 1.75-1.75zm-34.128-4.75c1.864-1.375 2.878-2.5 2.253-2.5s-1.387.408-1.695.906-1.462.67-2.564.382c-2.002-.523-4.994 1.175-4.994 2.834 0 1.697 3.647.851 7-1.622zm119.5 1.5c.34-.55-.335-1-1.5-1s-1.84.45-1.5 1 1.015 1 1.5 1 1.16-.45 1.5-1zm228.96.069c.316-.512.193-1.167-.274-1.456s-.85.13-.85.931c0 1.686.315 1.834 1.124.525zm9.429-1.282c-1.182-2.208-1.179-2.209 1.538-.429 2.672 1.751 2.702 1.746 1.649-.222-1.41-2.634-1.356-3.413.177-2.555.688.385.49-.108-.44-1.095-2.4-2.55-10.899-2.057-9.295.538.302.488 1.152.656 1.889.373.964-.37 1.208.178.869 1.951-.345 1.803.025 2.594 1.378 2.942 3.283.846 3.437.742 2.235-1.504zm-10.866-4.312c1.932-2.328.553-2.767-1.515-.482-.999 1.103-1.351 2.006-.783 2.006s1.602-.686 2.298-1.524zm-102.52-8.476c.995-1.1 1.585-2 1.31-2s-1.314.9-2.31 2-1.585 2-1.31 2 1.314-.9 2.31-2zm-17.307-2.103c1.583-.847 2.26-.789 2.919.25.666 1.051.861.963.873-.397.017-1.94-.354-2.026-4.86-1.125-1.719.344-3.125 1.019-3.125 1.5 0 1.192 1.713 1.099 4.193-.228zm-178.44-.527c1.237-.332 2.25-.997 2.25-1.478 0-1.281-6.338-.377-6.786.967-.42 1.259 1.104 1.431 4.536.511zm187.25-.37c0-.55-.198-1-.441-1s-.719.45-1.059 1-.141 1 .441 1 1.059-.45 1.059-1zm-108.5-3c.34-.55.168-1-.382-1s-1.278.45-1.618 1-.168 1 .382 1 1.278-.45 1.618-1zm13.5-4.661c1.323-1.276 1.265-1.362-.5-.727-1.1.396-2.9 1.362-4 2.147-1.912 1.364-1.89 1.395.5.727 1.375-.385 3.175-1.351 4-2.147zm99.25.999c-.687-.277-1.812-.277-2.5 0s-.125.504 1.25.504 1.938-.227 1.25-.504zm-89.113-5.126c-.721-.24-1.787.038-2.368.619-.742.742-.352.872 1.312.437 1.352-.354 1.806-.807 1.057-1.057zm-9.399-3.267c1.78-.647 3.021-1.528 2.756-1.956-.58-.938 1.64-1.862 6.221-2.59 1.862-.296 5.051-1.19 7.086-1.986l3.7-1.448-4.953.527c-2.724.29-6.45 1.068-8.279 1.73-2.842 1.028-3.831.931-6.797-.666-1.909-1.028-3.471-2.248-3.471-2.712s-.438-.843-.974-.843c-1.662 0-3.726 5.299-3.751 9.632-.024 4.13-.023 4.131 2.601 2.811 1.444-.726 4.082-1.85 5.862-2.498zm143.26-2.145c0-1.615-.296-1.904-1.113-1.087-.612.612-.811 1.602-.441 2.2 1.034 1.674 1.554 1.302 1.554-1.113zm7.085-.247c.503.311.915.062.915-.553s.45-.84 1-.5 1 .141 1-.441-.585-1.059-1.3-1.059c-1.599 0-3.728 2.028-3.621 3.45.043.578.307.485.586-.206s.918-1.002 1.421-.691zm9.915-4.123c0-.275-.9-.018-2 .57s-2 1.295-2 1.57.9.018 2-.57 2-1.295 2-1.57zm-93.008-5.68c.014-1.297-6.406-.752-8.331.707-1.72 1.303-1.655 1.414 1 1.718 2.94.337 7.317-1.111 7.331-2.425zm-350.6-3.92c-.483-.782-.182-.962.909-.544.898.344 1.902.189 2.233-.346s1.132-.677 1.782-.315.407-.164-.538-1.167c-1.661-1.763-1.786-1.763-3.726-.007-1.736 1.571-1.979 3.55-.437 3.55.275 0 .175-.526-.223-1.17zm173.11-5c-1.1-.61-2.771-1.776-3.713-2.591-1.589-1.374-1.625-1.292-.5 1.132.841 1.811 1.981 2.607 3.713 2.592 2.368-.021 2.395-.081.5-1.132zm4.5.729c0-.243-.45-.719-1-1.059s-1-.141-1 .441.45 1.059 1 1.059 1-.198 1-.441zm-170.82-3.776c-.718-.718-1.183-.777-1.183-.15 0 1.335 1.183 2.517 1.85 1.85.284-.284-.016-1.049-.667-1.7zm53.781-.533c-.019-.413-.679-1.875-1.465-3.25-1.091-1.908-1.437-2.086-1.465-.75-.019.963-.571 1.75-1.227 1.75s-.318.661.75 1.468c2.149 1.626 3.46 1.927 3.406.782zM485.579 5.24c-.299-.484-1.563-1.136-2.809-1.45-2.186-.551-2.197-.52-.324.879 2.15 1.606 3.979 1.94 3.134.571zm71.917 138.88c.068-6.172 1.81-8.303 2.26-2.762.138 1.706.476 3.326.75 3.6 1.274 1.274 1.867-1.498 1.83-8.552-.043-8.165 1.082-10.949 3.611-8.933 1.155.921 1.283.852.64-.35-.441-.825.33-.15 1.713 1.499s2.325 3.306 2.093 3.681.036.964.595 1.31c1.383.855 1.295 4.572-.101 4.26-.614-.137-1.242.483-1.394 1.379-.187 1.102.274 1.485 1.425 1.184.936-.245 2.596.372 3.691 1.371s1.406 1.424.693.944c-2.807-1.888-1.103.374 1.883 2.501 1.795 1.278 2.827 1.634 2.369.818-.447-.796.299-.322 1.658 1.053l2.47 2.5-3.493.32c-5.142.47-7.479-.406-9.407-3.529-.948-1.535-1.792-2.228-1.875-1.541a22.47 22.47 0 0 1-.402 2.25 20.44 20.44 0 0 0-.375 2c-.069.55-2.504 1-5.412 1h-5.287l.066-6.002zm-462.49 3.721c-2.05-1.675-2.215-3.295-.481-4.734 2.376-1.972 6.081-.458 6.081 2.485 0 1.392-.323 2.531-.718 2.531s-1.317.212-2.05.472-2.007-.08-2.832-.754zm141.54-.649c-.665-1.076 1.292-2.567 2.191-1.669.33.33.049.6-.626.6s-.948.45-.608 1 .393 1 .118 1-.759-.419-1.075-.931zm-31.543-1.447c0-1.589 2.417-3.873 3.233-3.056.302.302.321 1.423.041 2.491-.576 2.204-3.275 2.669-3.275.565zm221.46-.689c-.363-.587-.445-1.281-.183-1.543s.743.218 1.069 1.066c.676 1.762.1 2.072-.886.477zm-135.88-3.993c-1.059-1.067-2.521-1.941-3.25-1.941s-1.325-.45-1.325-1-.643-1-1.429-1-2.151-.723-3.034-1.606c-1.24-1.24-1.342-1.924-.449-3 1.609-1.939 2.244-1.781 5.448 1.356 1.545 1.512 2.437 2.118 1.982 1.345-.558-.948-.452-1.173.327-.691.635.392 1.154 1.388 1.154 2.214 0 .934.472 1.217 1.25.749.72-.433.615.035-.25 1.105-1.401 1.733-1.358 1.78.65.71 1.747-.931 2.263-.851 2.753.427.629 1.64-.023 3.434-1.212 3.332-.38-.033-1.557-.933-2.616-2zm-49.471.145c-1.675-1.06-.667-4.438 1.146-3.84 1.391.458 2.362 4.764 1.069 4.739-.451-.008-1.448-.413-2.215-.899zm116.6-5.404c-.252-.656.115-1.727.815-2.381.997-.931 1.379-.782 1.764.691.538 2.059-1.84 3.617-2.579 1.69zm-24.143-1.61c-2.255-2.491-1.237-5.865 2.015-6.681 2.375-.596 5.42.934 5.42 2.724 0 1.072-4.11 5.885-5.025 5.885-.366 0-1.45-.868-2.41-1.928zM.009 129.318c0-3.925.463-6.38 1.3-6.895.715-.44 2.326-2.269 3.579-4.065 2.898-4.153 7.059-6.409 9.402-5.098 3.642 2.038 1.671 5.519-10.031 17.721l-4.25 4.432zm183.04 4.353c-2.659-3.204 2.219-8.238 5.413-5.587 1.6 1.328 1.472 3.219-.369 5.438-1.651 1.99-3.471 2.043-5.044.149zm56.297.202c-1.403-2.246-1.167-3.561.728-4.057 2.24-.586 4.386 1.689 3.578 3.794-.703 1.832-3.229 1.986-4.306.263zm104.66-3.128c0-.208.788-.995 1.75-1.75 1.586-1.244 1.621-1.209.378.378-1.306 1.666-2.128 2.196-2.128 1.372zm185-2.015c0-.216.698-.661 1.552-.989.89-.341 1.291-.174.941.393-.587.95-2.493 1.405-2.493.596zm-139.9-3.521c-1.89-1.197-.573-4.322 1.643-3.899 2.067.394 3.057 4.821 1.073 4.798-.726-.008-1.948-.413-2.715-.899zm-51.62-2.134c-1.139-3.588 2.222-6.056 5.458-4.008 1.168.739 1.22 1.403.271 3.485-1.415 3.106-4.812 3.417-5.73.524zm-187.47-14.761c-.007-3.949-.385-6.078-1.011-5.691-.55.34-1.007-.196-1.015-1.191-.013-1.534-.163-1.581-.985-.309-.704 1.09-.974 1.142-.985.191-.008-.72-.426-1.055-.928-.745s-.761-.226-.577-1.191.377-2.43.428-3.255c.082-1.333.2-1.333 1.061 0 .804 1.244.975 1.159 1-.5.023-1.479.251-1.653.876-.666 1.08 1.704 2.124-.687 2.124-4.866 0-1.677.727-3.292 1.75-3.888.963-.561 1.363-1.033.889-1.05s.202-.891 1.5-1.944c1.562-1.266 2.749-1.592 3.508-.963 1.252 1.037.622 5.161-.667 4.364-.436-.27-.558.41-.27 1.511.304 1.164.031 2.001-.652 2.001-.647 0-.92.414-.607.919s-.143 1.631-1.012 2.5c-1.855 1.855-.452 2.173 1.459.331 1.049-1.011 1.219-.868.891.75-.224 1.1-.942 1.888-1.597 1.75s-1.078.313-.941 1-.312 1.138-1 1c-1.804-.361-1.56.312 1.188 3.278s2.52 4.269-1.677 9.535l-2.739 3.437-.011-6.309zm149.99-29.504c0-6.243.15-6.693 2.25-6.773 1.873-.072 1.747-.242-.75-1.016-1.65-.511-3.832-.728-4.849-.482s-1.601.2-1.298-.103-.102-1.205-.901-2.004c-1.203-1.203-1.226-1.679-.132-2.773.726-.726 2.189-1.486 3.25-1.689 1.639-.313 1.974-1.372 2.223-7.036l.294-6.668-4.58.392c-2.519.215-4.336-.004-4.038-.487s-.023-1.085-.714-1.339c-2.883-1.057 1.948-3.401 7.494-3.636 1.464-.062 1.75-1.054 1.75-6.063 0-5.761.094-5.981 2.476-5.784 1.362.113 2.714.824 3.004 1.582.364.949 1.702 1.241 4.308.94 2.382-.275 4.245.061 5.038.91 1.312 1.405 1.196 1.558-6.198 8.192-1.442 1.293-2.393 2.72-2.115 3.17s-.736 1.8-2.254 3l-2.76 2.181 10.823-.625c10.717-.619 10.82-.604 10.5 1.558-.178 1.201-1.055 2.289-1.949 2.418-4.003.576-6.002 1.794-7.41 4.518-.963 1.863-2.298 2.929-3.668 2.929-1.184 0-3.625.532-5.424 1.183-3.195 1.155-3.22 1.21-1.071 2.332 1.21.632 2.099 1.64 1.976 2.24-.148.718.708.835 2.5.342 1.498-.412 3.808-.479 5.132-.149 2.771.69 3.896 4.246 1.261 3.987-2.926-.288-4.302.042-3.769.903.681 1.102-2.191 5.163-3.651 5.163-.626 0-2.401 1.209-3.943 2.687l-2.805 2.687zm-150-.52v-5.167h3.393c2.061 0 3.614.576 3.956 1.468.658 1.716-1.013 3.032-3.849 3.032-1.382 0-2.036.705-2.115 2.282-.236 4.691-1.385 3.351-1.385-1.615zm0-17.667c0-3.025.45-5.5 1-5.5s1.014.563 1.032 1.25c.02.802.479.662 1.282-.393 1.23-1.617 6.991-3.62 9.436-3.281l2.161.298c.501.069.826.688.722 1.375-.369 2.429-1.778 3.75-4.001 3.75-1.237 0-3.123.682-4.191 1.514s-1.424 1.395-.791 1.25 1.083.186 1 .736-.544.869-1.026.708-1.52.627-2.307 1.75c-2.692 3.844-4.317 2.542-4.317-3.458zm323.5.5c-.34-.55-.141-1 .441-1s1.059.45 1.059 1-.198 1-.441 1-.719-.45-1.059-1zM.006 58.091c0-1.633.45-2.969 1-2.969s1.034.337 1.077.75.223 1.506.401 2.431-.306 1.923-1.076 2.219C.4 60.909.006 60.226.006 58.091zm315 2.031c0-.55.477-1 1.059-1s.781.45.441 1-.816 1-1.059 1-.441-.45-.441-1zm252.5-5c.34-.55.816-1 1.059-1s.441.45.441 1-.477 1-1.059 1-.781-.45-.441-1zm-260-7c-.34-.55-.141-1 .441-1s1.059.45 1.059 1-.198 1-.441 1-.719-.45-1.059-1zm-157.5-10c0-2.2.338-4.034.75-4.077s1.539-.227 2.503-.412c1.188-.227 1.959.486 2.393 2.214.493 1.965.091 2.972-1.753 4.39-3.42 2.63-3.893 2.373-3.893-2.116zm133.92-3.445c-.875-.624-.382-3.825.65-4.221.778-.299 1.106-1.058.729-1.688s.162-.47 1.198.355 1.575.985 1.198.355.01-1.412.86-1.738c1.016-.39 1.332-.169.92.645-.344.681.019.451.808-.511 1.568-1.913 3.246-2.42 2.152-.65-.478.773-.05.762 1.441-.035 1.166-.624 2.121-.804 2.121-.4s.54.195 1.2-.465c1.95-1.95 2.8-1.394 2.8 1.831 0 2.014-.587 3.213-1.75 3.573-.962.298-2.585.992-3.605 1.542-1.443.779-1.678.707-1.058-.323.596-.991.358-.968-.945.09-1.272 1.032-7.839 2.268-8.719 1.641zm-23.423-2.954c-1.043-1.23-1.727-3.251-1.794-5.307-.022-.663-.383-.993-.804-.734-1.233.762-1.848-1.03-.887-2.585.581-.941.321-2.051-.762-3.247-1.431-1.581-1.831-3.123-2.463-9.478-.068-.687-.469-1.25-.891-1.25s-.554-1.237-.294-2.75c1.04-6.044 1.25-6.25 6.399-6.25h4.87l-.568 3.5c-.455 2.801-.242 3.5 1.063 3.5 1.197 0 1.631-.931 1.631-3.5 0-3.257.218-3.5 3.14-3.5 1.804 0 3.719.744 4.502 1.75 1.298 1.667 1.334 1.667.753 0-.575-1.651 2.13-1.75 47.798-1.75 36.317 0 48.707.3 49.607 1.2.933.933 1.2.933 1.2 0 0-.876 3.778-1.2 14-1.2 16.16 0 15.843-.267 11.891 10.014-1.16 3.017-2.847 7.961-3.75 10.986-2.06 6.906-3.561 9.477-5.009 8.581-.622-.385-1.132-2.459-1.132-4.609 0-3.079-.321-3.786-1.513-3.329-.832.319-2.182.025-3-.654s-1.524-.842-1.568-.362a290.93 290.93 0 0 0-.286 3.681c-.349 4.791-5.113 6.326-7.582 2.442-1.813-2.853-5.365-9.935-5.642-11.25-.898-4.264-2.431-6.307-4.354-5.804-1.13.296-2.055.935-2.055 1.421s-.337.83-.75.765c-1.94-.306-2.059.409-.706 4.244 1.766 5.007 1.77 5.127.206 6.945-.687.799-1.153 1.276-1.035 1.06s-1.142-1.661-2.799-3.209-3.045-3.177-3.083-3.618-.691-1.69-1.451-2.775c-1.145-1.634-1.382-1.691-1.382-.333 0 2.478-2.28 2.744-4.25.496-.962-1.098-1.75-2.302-1.75-2.674s-1.238-1.294-2.75-2.046-4.159-2.386-5.882-3.629-3.737-2.392-4.476-2.551-1.95-.852-2.69-1.54c-2.045-1.9-2.952-1.51-2.952 1.27 0 2.348.099 2.4 1.449.75.797-.974 1.179-1.231.848-.572-.386.77.079 1.067 1.302.831 1.265-.244 2.281.464 3.031 2.109.62 1.361 1.563 2.206 2.095 1.877 1.049-.648 6.398 2.445 5.603 3.24-.673.673 2.03 3.246 3.409 3.246.622 0 .809.52.417 1.155-.417.674-.277.885.336.506.577-.357 1.305.017 1.617.83.335.874-.261 1.923-1.459 2.564-1.905 1.02-3.26.549-5.908-2.054-6.203-6.097-8.405-5.564-2.57.622 3.347 3.548 3.6 5.159 1.283 8.15-1.108 1.43-4.351.723-6.488-1.414-.757-.757-1.781-1.128-2.275-.822s-3.212-1.828-6.039-4.741-4.394-4.109-3.48-2.658c1.555 2.47 1.55 2.748-.086 4.384-1.122 1.122-1.882 1.341-2.125.613-.208-.624-.94-1.134-1.628-1.134s-1.299-.562-1.358-1.25c-.312-3.605-2.225-7.895-2.225-4.988 0 .602-.728 1.824-1.619 2.714-1.489 1.489-1.761 1.49-3.401.006-1.118-1.012-2.017-1.232-2.413-.591-.942 1.523-3.268.272-4.11-2.21-.616-1.816-.842-1.492-1.349 1.936-.429 2.904-1.492 4.849-3.608 6.601-2.778 2.3-6.239 2.787-4.947.696.311-.503.098-.915-.472-.915-1.815 0 .885-4.543 3.755-6.317 1.466-.906 4.021-2.893 5.679-4.415s2.58-2.431 2.05-2.018c-1.523 1.185-2.564.88-2.564-.75 0-.825-.241-1.5-.535-1.5-.938 0-5.835 3.32-9.859 6.684-2.142 1.79-4.279 3.018-4.75 2.727s-.855-.127-.855.364-.655.892-1.456.892-1.224-.375-.941-.833-.187-.833-1.044-.833-1.559-.54-1.559-1.2c0-2.128-1.857.557-2.214 3.2-.526 3.904-1.702 5.16-4.121 4.406-1.191-.372-2.439-1.1-2.774-1.619s-.852.879-1.151 3.107c-.783 5.836-5.632 9.783-8.241 6.707zm71.781-20.632c-.292-1.117-1.443-2.519-2.557-3.116-1.932-1.034-1.923-.94.193 2.032 2.593 3.641 3.092 3.87 2.364 1.084zM271.77 9.66c.149-1.8-.191-2.311-1.264-1.9-1.108.425-1.219 1.028-.451 2.463 1.311 2.451 1.469 2.399 1.714-.563zm-31.385 15.316c-.568-1.294-.728-3.766-.356-5.492.641-2.974.535-3.117-2.023-2.714-1.647.26-3.196-.173-3.974-1.111-1.779-2.144-2.999-1.915-2.472.464l.853 3.835c.226 1.009.113 2.292-.25 2.85-1.083 1.663-4.694 3.226-5.763 2.495-1.931-1.321-5.458-7.101-6.936-11.364-.823-2.374-1.781-4.991-2.129-5.816s-.801-2.373-1.006-3.439c-.527-2.742-1.289-3.236-2.366-1.532-.512.809-.937 1.049-.946.532s-.942.056-2.075 1.272-2.454 1.967-2.936 1.669c-1.006-.622.231 4.201 1.857 7.238.851 1.589.699 2.46-.712 4.087-1.704 1.965-1.864 1.98-3.221.299-.785-.973-1.588-2.412-1.783-3.198-.523-2.106-.981-4.326-1.068-5.179a.71.71 0 0 0-.827-.632c-2.553.403-4.293-.249-3.649-1.368.418-.726.338-.901-.191-.417-.501.458-.91 1.315-.91 1.905s-.816 1.191-1.813 1.337c-2.084.306-5.662-4.839-5.161-7.421.177-.91.355-1.992.397-2.404.119-1.169 28.86-.91 29.587.266.345.559 1.032.767 1.526.461s1.471.362 2.171 1.484c1.753 2.807 3.125 2.558 2.547-.461l-.478-2.5h24.723v2.929c0 1.611-.713 3.641-1.584 4.513s-2.08 3.266-2.685 5.321c-1.495 5.072-1.464 4.927-1.605 7.627-.069 1.314-.932 3.385-1.918 4.603l-1.793 2.214zm.301-14.04c-.319-.798-.556-.561-.604.604-.043 1.054.193 1.645.525 1.313s.368-1.195.079-1.917zm-65.679 10.341c-1.638-1.565-2.701-3.123-2.362-3.463s-.679-1.186-2.263-1.882c-3.329-1.463-8.726-6.621-9.209-8.8-.342-1.545-2.025-2.968-3.542-2.994-.48-.008-.303.671.393 1.509s.992 1.798.658 2.132c-.926.926 1.288 4.484 2.373 3.813.522-.323 1.006-.11 1.075.472s.212 1.621.319 2.309c.304 1.959-1.066 4.077-2.801 4.332-.87.128-1.483-.289-1.362-.925s-.456-1.007-1.281-.824-1.166 0-.759-.408.242-1.343-.368-2.078-.884-2.2-.607-3.256c.455-1.74-.538-2.468-4.266-3.123-.275-.048-.834-.99-1.242-2.093s-1.215-1.712-1.794-1.354-1.718.097-2.533-.578c-1.86-1.543-2.183-1.203-2.933 3.087-.334 1.908-1.329 4.595-2.21 5.97-1.552 2.421-4.384 4.666-5.177 4.104-.214-.151-.711.247-1.105.884-.52.841-1.135.741-2.243-.367-.839-.839-1.708-1.344-1.931-1.121-.354.354-.844-2.442-1.088-6.206-.043-.663-.453-.974-.912-.691s-.833.012-.833-.603-.375-.886-.833-.603-.833-.14-.833-.941.487-1.463 1.083-1.471.408-.452-.417-.985c-1.245-.805-1.16-.977.5-1.015 1.839-.042 1.859-.128.25-1.065-3.957-2.305-1.273-2.92 12.75-2.92 11.958 0 14.5.253 14.5 1.441 0 .793.408 1.693.907 2.001s.672-.339.384-1.437c-.507-1.939-.035-1.996 16.093-1.95 9.139.026 16.616.43 16.616.899s-1.322 1.312-2.939 1.876c-2.278.794-3.205.704-4.122-.402-1.574-1.897-3.39-1.802-5.067.265-.933 1.15-.972 1.451-.122.941.815-.49 1.255-.121 1.265 1.058.012 1.418.204 1.511.888.431.48-.758 1.381-1.064 2.001-.681s.826 1.186.457 1.783c-.404.653-.205.797.5.362.644-.398.912-1.142.595-1.655s-.34-.931-.052-.931 1.035.954 1.659 2.121c.918 1.715.877 1.971-.215 1.34-.742-.43-.999-.396-.571.075 1.149 1.263 3.84 1.467 3.078.233-.359-.581.804-.204 2.584.838 4.258 2.492 5.488 4.793 3.462 6.475-1.287 1.068-2.15.971-5.003-.565-1.896-1.021-3.699-2.862-4.008-4.092s-1.423-2.461-2.476-2.736c-3.284-.859-2.463 3.875 1.03 5.939 1.62.957 2.719 2.108 2.441 2.557s-.054.817.497.817c1.242 0 .6 3.712-.968 5.602-1.809 2.18-4.661 1.658-7.912-1.448zm-156-6.521c0-.532-.297-.67-.66-.306s-1.289-.237-2.057-1.333-2.121-1.994-3.006-1.994-1.309-.301-.941-.669-.12-1.57-1.083-2.672c-1.298-1.483-1.363-1.809-.252-1.257.916.455.824.192-.234-.677-.954-.783-1.441-1.716-1.083-2.074s-.024-.651-.849-.651-1.5-.675-1.5-1.5c0-2.34 13.268-2.079 16.925.332 1.517 1 2.454 2.122 2.083 2.493s-.219.675.338.675.901 1.237.766 2.75l-.346 4.059c-.055.72-.437 1.105-.849.855-.824-.499-3.378 1.874-2.723 2.53.224.224-.703.407-2.06.407s-2.467-.435-2.467-.967zm65.321-2.89c-1.198-.542-2.715-2.281-3.371-3.864s-1.615-2.879-2.13-2.879-.66-.45-.32-1 .115-1-.5-1-.864-.412-.553-.915 0-1.142-.691-1.421 2.44-.542 6.959-.585c7.047-.068 8.357.187 9.215 1.79.55 1.028.757 2.111.46 2.408s-.645 1.255-.773 2.129c-.244 1.66-4.605 6.259-4.632 4.884-.008-.434-.346-.287-.75.325-.507.769-1.41.809-2.913.129zm20.116.507c.375-.687.178-1.25-.437-1.25s-.84-.45-.5-1 .167-1-.384-1-.759-1.012-.462-2.25.586-3.262.643-4.5c.088-1.923.658-2.25 3.922-2.25 3.644 0 3.792.126 3.226 2.75-.327 1.513-.635 3.201-.686 3.752s-1.422 2.351-3.048 4-2.649 2.436-2.274 1.749zm-45.93-6.261c.336-.544-.117-.989-1.007-.989s-1.34-.45-1-1 .115-1-.5-1-.864-.412-.553-.915 0-1.143-.691-1.421.881-.542 3.494-.585c4.928-.082 5.778.751 3.298 3.231-.799.799-1.229 1.675-.957 1.948s-.222.771-1.1 1.108c-.924.355-1.338.196-.984-.376zM33.507 3.387c-1.1-.277-2.888-1.125-3.972-1.884C27.756.258 28.1.126 33.035.155c4.741.028 5.241.208 3.738 1.349-.954.724-1.441 1.61-1.083 1.968s.464.599.234.535-1.317-.343-2.417-.62z"/>
</svg>
