<svg width="4.2333mm" height="4.2333mm" version="1.1" viewBox="0 0 4.2333 4.2333" xmlns="http://www.w3.org/2000/svg">
 <style/>
 <g transform="translate(-116 -50.876)">
  <path d="m116.21 55.019c-0.11987-0.07-0.1501-0.14232-0.17396-0.4162-0.0159-0.18231-0.0291-0.40099-0.0294-0.48594-8.8e-4 -0.26288 0.0826-0.17035 0.13901 0.15419 0.10861 0.62427 0.45913 0.77582 0.70696 0.30566 0.11793-0.22372 0.13658-0.31446 0.11218-0.54586-0.038-0.36017-0.13324-0.55198-0.44658-0.89913-0.43726-0.48444-0.56967-1.095-0.37131-1.7122 0.14877-0.46294 0.51653-0.67191 0.80997-0.46026 0.10083 0.07272 0.11935 0.14121 0.11935 0.44132 0 0.37447-0.0664 0.4769-0.11623 0.17924-0.0488-0.2916-0.16069-0.44184-0.32909-0.44184-0.17228 0-0.34188 0.24525-0.35098 0.50752-0.0185 0.5337 0.0667 0.74307 0.49694 1.2203 0.30211 0.33518 0.43912 0.68177 0.43876 1.1099-1.8e-4 0.26766-0.15028 0.73266-0.29414 0.91147-0.14022 0.17431-0.51865 0.2444-0.71149 0.13179zm2.1263-0.10777c-0.27958-1.3753-0.72334-3.4194-0.77606-3.5747-0.0371-0.10923-0.10879-0.19859-0.15938-0.19859-0.0506 0-0.092-0.03972-0.092-0.08826 0-0.05149 0.15508-0.08826 0.3722-0.08826s0.37221 0.03678 0.37221 0.08826c0 0.04855-0.0321 0.08826-0.0712 0.08826-0.0392 0-0.0819 0.05256-0.0949 0.11679-0.0231 0.11423 0.50844 2.8599 0.58049 2.9985 0.0201 0.03861 0.10387-0.22299 0.18623-0.58132l0.14973-0.65151-0.20152-0.87503c-0.13728-0.5961-0.23462-0.90281-0.30537-0.96216-0.18203-0.15271-0.11294-0.2218 0.22182-0.2218 0.33662 0 0.37977 0.03791 0.24923 0.21899-0.0701 0.09728-0.0673 0.15098 0.0347 0.64964 0.0611 0.29898 0.12413 0.54359 0.14004 0.54359 0.0416 0 0.22743-0.87514 0.22743-1.0709 0-0.10592-0.0332-0.16476-0.0931-0.16476-0.0512 0-0.0931-0.03972-0.0931-0.08826 0-0.04903 0.12407-0.08826 0.27915-0.08826 0.28788 0 0.34007 0.06189 0.19606 0.23252-0.0457 0.05415-0.16372 0.44169-0.26225 0.8612l-0.17915 0.76275 0.1529 0.75028c0.0841 0.41265 0.16015 0.73651 0.16903 0.71968 0.0523-0.09927 0.57209-2.9985 0.54982-3.0668-0.0149-0.04569-0.0572-0.08307-0.0941-0.08307s-0.067-0.03972-0.067-0.08826 0.11515-0.08826 0.25589-0.08826 0.25589 0.02342 0.25589 0.05205-0.04 0.11799-0.089 0.19859c-0.0493 0.08124-0.24585 0.96836-0.44098 1.9908-0.19359 1.0143-0.3615 1.8623-0.37315 1.8844-0.0503 0.09545-0.11647-0.10835-0.28384-0.87437-0.16485-0.75449-0.18182-0.79931-0.22688-0.59922-0.21838 0.96983-0.35931 1.4961-0.40062 1.4961-0.0269 0-0.067-0.08937-0.0892-0.19859z" stroke-width=".064082"/>
 </g>
</svg>
