<svg version="1.1" viewBox="0 0 699.23 699.1" xmlns="http://www.w3.org/2000/svg">
 <style/>
 <g transform="translate(-100.58 -100.57)">
  <path d="m428 799.4c-36.415-3.2442-63.287-8.6946-92.5-18.762-77.075-26.56-143.28-80.375-185.6-150.87-26.293-43.793-41.563-89.287-48.086-143.27-1.635-13.529-1.6349-59.235 2.6e-4 -72.5 7.9828-64.759 28.14-117.97 63.387-167.35 16.812-23.549 43.583-51.813 66.302-69.998 51.898-41.543 113.72-66.969 182-74.856 14.234-1.644 58.766-1.644 73 0 83.08 9.5959 155.44 44.608 212.57 102.86 31.281 31.892 54.065 65.204 70.963 103.75 31.632 72.159 38.285 152.63 18.915 228.81-20.081 78.975-69.783 150.98-136.95 198.4-48.363 34.145-99.828 53.919-161.22 61.944-10.838 1.4166-53.466 2.6591-62.775 1.8298zm22-349.55v-320.15l-13.83 0.66019c-78.636 3.7538-150.66 34.36-206.65 87.811-48.187 46.007-80.381 104.35-93.441 169.34-4.331 21.552-5.4815 34.809-5.4675 63 0.014 28.066 1.0585 39.88 5.4821 62 24.259 121.31 116.12 217.61 236.53 247.98 21.341 5.3822 48.236 9.0581 68.618 9.3784l8.75 0.13752z"/>
 </g>
</svg>
